<?xml version="1.0"?>
<svg xmlns="http://www.w3.org/2000/svg" id="Layer_1" enable-background="new 0 0 512 512" height="512px" viewBox="0 0 512 512" width="512px" class=""><g><path d="m216.92 130.75c-9.43-18.27-27.39-31.44-48.58-34.2-11.17 18.73-9.91 29.76-3.62 41.3 13.5-7.77 30.17-13.46 52.2-7.1z" data-original="#000000" class="active-path" data-old_color="#000000" fill="#4D1011"/><path d="m137.85 155.28c-7.77-13.5-13.46-30.17-7.1-52.2-18.27 9.43-31.44 27.39-34.2 48.58 18.73 11.17 29.76 9.91 41.3 3.62z" data-original="#000000" class="active-path" data-old_color="#000000" fill="#4D1011"/><path d="m155.28 182.15c-16.86 9.68-33.188 12.576-52.19 7.11 9.43 18.26 27.39 31.43 48.57 34.19 11.17-18.73 9.91-29.76 3.62-41.3z" data-original="#000000" class="active-path" data-old_color="#000000" fill="#4D1011"/><path d="m182.15 164.72c7.77 13.5 13.46 30.17 7.1 52.2 18.27-9.43 31.44-27.39 34.2-48.58-18.73-11.17-29.76-9.91-41.3-3.62z" data-original="#000000" class="active-path" data-old_color="#000000" fill="#4D1011"/><path d="m334.63 96-14.63 14.63v17.37h64v-17.37l-14.63-14.63z" data-original="#000000" class="active-path" data-old_color="#000000" fill="#4D1011"/><path d="m334.63 224-14.63 14.63v17.37h64v-17.37l-14.63-14.63z" data-original="#000000" class="active-path" data-old_color="#000000" fill="#4D1011"/><path d="m496 464h-32v-32h32c8.836 0 16-7.163 16-16s-7.164-16-16-16h-32c0-8.84-7.16-16-16-16h-31c-26.374 0-48 21.424-48 48.03-.762-.046 13.853-.03-201-.03-22.06 0-40-17.94-40-40v-40h336c8.84 0 16-7.16 16-16v-320c0-8.84-7.16-16-16-16h-448c-8.84 0-16 7.16-16 16v320c0 8.84 7.16 16 16 16h48c0-17.394 0-53.833 0-64 0-8.84 7.16-16 16-16s16 7.16 16 16v104c0 39.7 32.3 72 72 72 205.675 0 201-.1 201 0 0 26.47 21.53 48 48 48h31c8.84 0 16-7.16 16-16h32c8.836 0 16-7.163 16-16s-7.164-16-16-16zm-96-304h-96c-8.84 0-16-7.16-16-16v-40c0-4.24 1.69-8.31 4.69-11.31l24-24c3-3 7.07-4.69 11.31-4.69h48c4.24 0 8.31 1.69 11.31 4.69l24 24c3 3 4.69 7.07 4.69 11.31v40c0 8.84-7.16 16-16 16zm16 72v40c0 8.84-7.16 16-16 16h-96c-8.84 0-16-7.16-16-16v-40c0-4.24 1.69-8.31 4.69-11.31l24-24c3-3 7.07-4.69 11.31-4.69h48c4.24 0 8.31 1.69 11.31 4.69l24 24c3 3 4.69 7.07 4.69 11.31zm-352-72c0-52.745 42.888-96 96-96 52.752 0 96 42.894 96 96 0 56.274-48.728 98.328-96.6 95.99-52.66-.32-95.4-43.26-95.4-95.99z" data-original="#000000" class="active-path" data-old_color="#000000" fill="#4D1011"/></g> </svg>
