<?xml version="1.0"?>
<svg xmlns="http://www.w3.org/2000/svg" id="Capa_1" enable-background="new 0 0 512 512" height="512px" viewBox="0 0 512 512" width="512px" class=""><g><g><g><g><path d="m495.95 242.105h-49.347c-.222-29.753-24.433-54.73-55.249-54.73h-72.66c-30.836 0-55.027 24.998-55.25 54.73h-14.887c-.222-29.753-24.433-54.73-55.249-54.73h-72.66c-30.837 0-55.027 24.998-55.249 54.73h-49.349c-8.625 0-15.642 7.017-15.642 15.642v18.646c0 8.625 7.017 15.642 15.642 15.642h2.931v206.067c0 7.662 6.234 13.896 13.896 13.896h18.023c7.662 0 13.896-6.234 13.896-13.896v-206.067h10.371l9.191 40.734c3.837 17.001 18.688 28.875 36.117 28.875h7.354l1.562 15.441h-18.767c-15.963 0-28.95 12.987-28.95 28.95 0 9.554 7.772 17.327 17.326 17.327h50.328v53.691h-14.528c-16.174 0-30.692 9.628-36.984 24.528-1.611 3.816.176 8.215 3.991 9.826s8.215-.175 9.826-3.991c3.942-9.334 13.035-15.365 23.167-15.365h44.352c10.132 0 19.225 6.031 23.167 15.365 1.614 3.822 6.016 5.599 9.826 3.991 3.815-1.611 5.602-6.01 3.991-9.826-6.292-14.9-20.81-24.528-36.984-24.528h-14.825v-53.691h49.704c9.554 0 17.327-7.773 17.327-17.327 0-15.963-12.987-28.95-28.951-28.95h-17.846l1.562-15.441h7.354c14.889 0 28.266-8.85 34.079-22.547 1.618-3.812-.161-8.215-3.974-9.833-3.809-1.614-8.214.161-9.833 3.974-3.456 8.145-11.413 13.407-20.272 13.407-30.698 0 55.031 0-73 0-10.368 0-19.203-7.064-21.485-17.177l-17.599-77.995c-5.687-25.193 13.482-49.099 39.255-49.099h72.66c25.778 0 44.939 23.909 39.255 49.1l-11.044 48.946c-.911 4.04 1.625 8.054 5.666 8.966 4.041.909 8.055-1.625 8.966-5.666l2.637-11.686h34.428l9.192 40.734c3.837 17.001 18.688 28.875 36.117 28.875h7.813l1.562 15.441h-18.767c-15.963 0-28.95 12.987-28.95 28.95 0 9.554 7.772 17.327 17.326 17.327h50.558v53.691h-14.758c-16.174 0-30.692 9.628-36.984 24.528-1.611 3.816.176 8.215 3.991 9.826 3.814 1.611 8.215-.175 9.826-3.991 3.942-9.334 13.035-15.365 23.167-15.365h44.353c10.132 0 19.225 6.031 23.166 15.364 1.618 3.834 6.029 5.596 9.825 3.992 3.816-1.611 5.603-6.01 3.992-9.825-6.291-14.901-20.808-24.529-36.983-24.529h-14.596v-53.691h49.474c9.554 0 17.327-7.773 17.327-17.327 0-15.963-12.987-28.95-28.95-28.95h-17.847l1.562-15.441h6.893c17.429 0 32.28-11.874 36.117-28.875l9.192-40.734h10.371v206.067c0 7.662 6.234 13.896 13.896 13.896h18.023c7.662 0 13.896-6.234 13.896-13.896v-33.62c0-4.142-3.357-7.499-7.499-7.499s-7.499 3.357-7.499 7.499v32.518h-15.818v-204.964h15.818v137.524c0 4.142 3.357 7.499 7.499 7.499s7.499-3.357 7.499-7.499v-137.524h2.931c8.625 0 15.642-7.017 15.642-15.642v-18.646c-.001-8.625-7.018-15.642-15.643-15.642zm-446.151 254.894h-15.818v-204.964h15.818zm-33.749-219.963c-.354 0-.644-.289-.644-.643v-18.646c0-.354.289-.643.644-.643h51.236l4.498 19.933h-55.734zm154.998 84.608-1.562 15.441h-25.019l-1.562-15.441zm31.36 30.44c7.693 0 13.952 6.258 13.952 13.951 0 1.284-1.044 2.328-2.328 2.328h-115.031c-1.283 0-2.327-1.044-2.327-2.328 0-7.693 6.258-13.951 13.951-13.951zm39.762-115.048 4.498-19.933h18.663l4.498 19.933zm158.745 115.048c7.693 0 13.951 6.258 13.951 13.951 0 1.284-1.044 2.328-2.328 2.328h-115.03c-1.283 0-2.327-1.044-2.327-2.328 0-7.693 6.258-13.951 13.951-13.951zm-59.503-30.44h28.142l-1.562 15.441h-25.018zm89.195-110.17-17.599 77.994c-2.282 10.113-11.117 17.177-21.486 17.177-15.352 0-58.165 0-73 0-10.368 0-19.203-7.064-21.486-17.178l-17.6-77.993c-5.685-25.195 13.483-49.1 39.255-49.1h72.66c25.78 0 44.941 23.908 39.256 49.1zm65.986 24.919c0 .354-.289.643-.643.643h-55.734l4.498-19.933h51.236c.354 0 .643.289.643.643z" data-original="#000000" class="active-path" data-old_color="#000000" fill="#4D1011"/><path d="m21.591 43.138h50.257v15.29c-10.102 3.191-17.447 12.649-17.447 23.792v10.181c-15.761 8.559-26.359 24.92-27.447 42.967-.353 5.806 4.296 10.703 10.101 10.703h84.585c5.815 0 10.45-4.907 10.102-10.699-1.088-18.051-11.687-34.412-27.448-42.971v-10.18c0-11.143-7.345-20.601-17.447-23.792v-15.29h161.653v15.29c-10.102 3.191-17.447 12.649-17.447 23.792v10.181c-15.761 8.559-26.36 24.921-27.448 42.972-.349 5.805 4.299 10.698 10.102 10.698h84.585c5.815 0 10.45-4.907 10.102-10.699-1.088-18.051-11.687-34.412-27.448-42.971v-10.181c0-11.143-7.345-20.601-17.447-23.792v-15.29h161.653v15.29c-10.102 3.191-17.447 12.649-17.447 23.793v10.181c-15.761 8.559-26.36 24.92-27.448 42.967-.355 5.83 4.318 10.703 10.102 10.703h84.585c5.815 0 10.449-4.907 10.101-10.699-1.088-18.051-11.686-34.412-27.447-42.971v-10.182c0-11.143-7.345-20.601-17.447-23.792v-15.29h50.257c11.894 0 21.569-9.676 21.569-21.569.001-11.894-9.674-21.57-21.568-21.57h-468.818c-11.894 0-21.569 9.676-21.569 21.569s9.675 21.569 21.569 21.569zm72.31 60.882c11.415 4.814 19.715 15.111 22.179 27.053h-73.463c2.464-11.943 10.763-22.239 22.178-27.053.016-.007.031-.013.047-.019 9.264-3.894 19.739-3.901 29.018.002.013.005.027.011.041.017zm-4.606-21.799v4.814c-6.425-1.238-13.129-1.304-19.895 0v-4.814c0-5.485 4.463-9.947 9.947-9.947s9.948 4.462 9.948 9.947zm181.258 21.799c11.415 4.814 19.715 15.111 22.179 27.053h-73.465c2.465-11.944 10.766-22.241 22.184-27.055.012-.005.025-.01.037-.016 9.263-3.897 19.743-3.903 29.023 0zm-4.606-21.799v4.814c-6.398-1.233-13.103-1.309-19.895 0v-4.814c0-5.485 4.463-9.947 9.947-9.947s9.948 4.462 9.948 9.947zm181.258 21.799c11.415 4.814 19.715 15.111 22.178 27.053h-73.463c2.465-11.944 10.766-22.241 22.184-27.055.012-.005.025-.01.038-.016 9.263-3.896 19.738-3.902 29.018-.002.015.007.03.013.045.02zm-4.605-21.799v4.814c-6.412-1.236-13.116-1.306-19.895 0v-4.814c0-5.485 4.462-9.947 9.946-9.947 5.486-.001 9.949 4.462 9.949 9.947zm-421.009-67.222h468.818c3.623 0 6.571 2.948 6.571 6.571s-2.948 6.57-6.571 6.57h-468.818c-3.623 0-6.571-2.948-6.571-6.571s2.948-6.57 6.571-6.57z" data-original="#000000" class="active-path" data-old_color="#000000" fill="#4D1011"/></g></g></g></g> </svg>
